<?xml version="1.0" encoding="UTF-8"?>
<svg width="18px" height="18px" viewBox="0 0 18 18" version="1.1" xmlns="http://www.w3.org/2000/svg" xmlns:xlink="http://www.w3.org/1999/xlink">
    <!-- Generator: Sketch 51.2 (57519) - http://www.bohemiancoding.com/sketch -->
    <title>Shape</title>
    <desc>Created with Sketch.</desc>
    <defs></defs>
    <g id="extension" stroke="none" stroke-width="1" fill="none" fill-rule="evenodd">
        <g id="Desktop-HD" transform="translate(-251.000000, -313.000000)" fill="#0C2550" fill-rule="nonzero">
            <g id="card-full-2-copy" transform="translate(219.000000, 292.000000)">
                <g id="Navigation-Bar---With-Search---Active-1" transform="translate(32.000000, 19.000000)">
                    <path d="M17.7306117,13.1772104 C16.5284212,17.9986302 11.6445573,20.9328816 6.82201237,19.7305501 C2.00143645,18.5284998 -0.933157354,13.6449244 0.269595747,8.82378578 C1.47122373,4.00180347 6.35508764,1.06727075 11.1762261,2.26932105 C15.9984897,3.47137135 18.9328022,8.35550928 17.7306117,13.1772104 Z M12.9374192,9.74136367 C13.1171957,8.54601762 12.2022264,7.90342788 10.9511286,7.47475399 L11.3569663,5.85550645 L10.3660788,5.60986817 L9.97096563,7.18644483 C9.71047313,7.12187706 9.44292504,7.06095876 9.17707029,7.00060193 L9.57500574,5.41363828 L8.5846827,5.168 L8.17856276,6.78668608 C7.96294383,6.73783915 7.75127604,6.68955369 7.54581717,6.63874165 L7.54694606,6.63368852 L6.18041879,6.2942866 L5.91682183,7.34702209 C5.91682183,7.34702209 6.65201463,7.51461758 6.63649233,7.52500457 C7.03781446,7.62466352 7.11034596,7.88882995 7.09821034,8.09825413 L6.63592788,9.94292742 C6.66358581,9.94994566 6.69942822,9.96005192 6.73893954,9.97577277 C6.70591936,9.96763162 6.6706414,9.95864827 6.63423454,9.94994566 L5.98624887,12.5340604 C5.93714194,12.6553355 5.81268128,12.8372482 5.5321509,12.7681887 C5.54202873,12.7825059 4.81191595,12.5893641 4.81191595,12.5893641 L4.32,13.7176158 L5.6094802,14.0373666 C5.84937036,14.097162 6.08446272,14.1597647 6.31588618,14.2187179 L5.90581511,15.8564935 L6.89557371,16.1021318 L7.30169365,14.4817614 C7.57206397,14.554751 7.83453204,14.6221261 8.09135563,14.685571 L7.68664681,16.2983617 L8.6775343,16.544 L9.08760537,14.9093123 C10.7772788,15.2273788 12.04785,15.0990855 12.582664,13.5789354 C13.0136196,12.354955 12.561215,11.6489204 11.6722102,11.188524 C12.3196315,11.0400182 12.8073141,10.6163974 12.9374192,9.74136367 Z M10.6734205,12.8992894 C10.3672077,14.1232698 8.29540338,13.4615905 7.62371092,13.2956794 L8.16783826,11.1259214 C8.83953072,11.2926747 10.9934622,11.6228125 10.6734205,12.8992894 Z M10.9799154,9.72367771 C10.700514,10.8370508 8.976127,10.2713809 8.41675958,10.1327005 L8.91008665,8.16478701 C9.46945407,8.30346736 11.2708881,8.56229993 10.9799154,9.72367771 Z" id="Shape"></path>
                </g>
            </g>
        </g>
    </g>
</svg>